<svg width="39" height="39" viewBox="0 0 39 39" fill="none" xmlns="http://www.w3.org/2000/svg">
<path d="M0.000216343 14.5994C-0.00515802 14.9288 0.089712 15.2521 0.272248 15.5263C0.454783 15.8006 0.716362 16.0128 1.0223 16.135L16.6233 22.3764L22.8647 37.979C22.9853 38.2808 23.1935 38.5395 23.4626 38.7217C23.7317 38.9039 24.0493 39.0012 24.3743 39.0011H24.4003C24.7294 38.9959 25.0491 38.8909 25.3172 38.7C25.5854 38.5091 25.7892 38.2412 25.9017 37.9319L38.9012 2.18331C39.0076 1.89248 39.0287 1.57731 38.962 1.2749C38.8953 0.972492 38.7435 0.695443 38.5246 0.476382C38.3058 0.25732 38.0288 0.105368 37.7265 0.0384229C37.4241 -0.0285224 37.1089 -0.00767368 36.818 0.0985133L1.06942 13.098C0.759981 13.2108 0.492079 13.4149 0.30116 13.6833C0.11024 13.9517 0.00529782 14.2717 0.000216343 14.6011V14.5994Z" fill="black"/>
</svg>
