<svg width="46" height="46" viewBox="0 0 46 46" fill="none" xmlns="http://www.w3.org/2000/svg">
<path d="M32.8921 27.1389C32.3401 26.8553 29.5903 25.5082 29.0788 25.3259C28.5673 25.1335 28.1926 25.0423 27.8229 25.6095C27.4481 26.1717 26.3846 27.4225 26.0504 27.8023C25.7263 28.1771 25.3971 28.2226 24.8451 27.9441C21.5635 26.3033 19.4113 25.017 17.2489 21.305C16.6766 20.3175 17.8211 20.3884 18.8897 18.2564C19.072 17.8816 18.9808 17.5626 18.839 17.279C18.6972 16.9954 17.5831 14.2506 17.1172 13.1314C16.6665 12.0426 16.2006 12.1945 15.8613 12.1743C15.5372 12.154 15.1675 12.154 14.7927 12.154C14.418 12.154 13.8154 12.2958 13.3039 12.8478C12.7924 13.4099 11.3491 14.7621 11.3491 17.5069C11.3491 20.2516 13.3495 22.9103 13.6229 23.2851C13.9065 23.6598 17.5578 29.2912 23.1638 31.7169C26.7088 33.2463 28.0963 33.378 29.8688 33.1146C30.9475 32.9526 33.1706 31.7676 33.6315 30.4559C34.0923 29.1494 34.0923 28.0302 33.9556 27.7973C33.8189 27.5491 33.4441 27.4073 32.8921 27.1389Z" fill="black"/>
<path d="M43.613 13.8961C42.4685 11.1766 40.8277 8.7357 38.7362 6.63913C36.6447 4.54763 34.2037 2.90177 31.4792 1.76233C28.6939 0.592509 25.7364 0 22.6878 0H22.5865C19.5176 0.0151925 16.5449 0.622893 13.7495 1.81804C11.0503 2.97267 8.62964 4.61346 6.55839 6.70497C4.48715 8.79647 2.86155 11.2273 1.7373 13.9366C0.572539 16.7422 -0.0149052 19.725 0.000287304 22.7938C0.0154798 26.3084 0.856133 29.7976 2.43109 32.9171V40.6147C2.43109 41.901 3.47431 42.9442 4.76061 42.9442H12.4632C15.5828 44.5192 19.072 45.3598 22.5865 45.375H22.6929C25.7263 45.375 28.6686 44.7876 31.4387 43.638C34.148 42.5087 36.5839 40.8881 38.6703 38.8169C40.7618 36.7456 42.4077 34.325 43.5572 31.6258C44.7524 28.8303 45.3601 25.8577 45.3753 22.7888C45.3905 19.7047 44.7929 16.7118 43.613 13.8961V13.8961ZM35.961 36.0772C32.411 39.5917 27.7013 41.5262 22.6878 41.5262H22.6017C19.548 41.511 16.5146 40.7514 13.8356 39.3233L13.4102 39.0954H6.27986V31.9651L6.05198 31.5397C4.62388 28.8607 3.86425 25.8273 3.84906 22.7736C3.8288 17.7246 5.75825 12.9845 9.29811 9.4143C12.8329 5.84406 17.5578 3.86903 22.6068 3.84877H22.6929C25.2249 3.84877 27.6811 4.34 29.9954 5.31232C32.254 6.25932 34.2797 7.62158 36.0218 9.36366C37.7588 11.1007 39.1261 13.1314 40.0731 15.39C41.0555 17.7297 41.5468 20.2111 41.5366 22.7736C41.5063 27.8175 39.5262 32.5424 35.961 36.0772V36.0772Z" fill="black"/>
</svg>
